<mxfile host="app.diagrams.net" modified="2021-09-01T06:18:32.301Z" agent="5.0 (Windows NT 10.0; Win64; x64) AppleWebKit/537.36 (KHTML, like Gecko) Chrome/92.0.4515.159 Safari/537.36 Edg/92.0.902.78" etag="EMih-sjMAFTCxWcMiuYa" version="15.0.4" type="github">
  <diagram id="tooN1c1qDwqxYIr9J-vJ" name="Page-1">
    <mxGraphModel dx="1445" dy="1798" grid="1" gridSize="10" guides="1" tooltips="1" connect="1" arrows="1" fold="1" page="1" pageScale="1" pageWidth="827" pageHeight="1169" math="0" shadow="0">
      <root>
        <mxCell id="0" />
        <mxCell id="1" parent="0" />
        <mxCell id="MbVRnHVSaUQfbClzgoed-588" value="" style="shape=trapezoid;perimeter=trapezoidPerimeter;whiteSpace=wrap;html=1;fixedSize=1;fillColor=#FFFFFF;" vertex="1" parent="1">
          <mxGeometry x="1397" y="-300" width="320" height="180" as="geometry" />
        </mxCell>
        <mxCell id="MbVRnHVSaUQfbClzgoed-1" value="" style="whiteSpace=wrap;html=1;aspect=fixed;" vertex="1" parent="1">
          <mxGeometry x="260" y="80" width="100" height="100" as="geometry" />
        </mxCell>
        <mxCell id="MbVRnHVSaUQfbClzgoed-3" value="" style="endArrow=classic;html=1;" edge="1" parent="1">
          <mxGeometry width="50" height="50" relative="1" as="geometry">
            <mxPoint x="170" y="100" as="sourcePoint" />
            <mxPoint x="260" y="100" as="targetPoint" />
            <Array as="points">
              <mxPoint x="201" y="100" />
            </Array>
          </mxGeometry>
        </mxCell>
        <mxCell id="MbVRnHVSaUQfbClzgoed-426" value="fet_pc_tar" style="edgeLabel;html=1;align=center;verticalAlign=middle;resizable=0;points=[];" vertex="1" connectable="0" parent="MbVRnHVSaUQfbClzgoed-3">
          <mxGeometry x="-0.7748" y="-3" relative="1" as="geometry">
            <mxPoint x="110" y="-3" as="offset" />
          </mxGeometry>
        </mxCell>
        <mxCell id="MbVRnHVSaUQfbClzgoed-427" value="" style="endArrow=classic;html=1;" edge="1" parent="1">
          <mxGeometry width="50" height="50" relative="1" as="geometry">
            <mxPoint x="180" y="145" as="sourcePoint" />
            <mxPoint x="260" y="144.5" as="targetPoint" />
            <Array as="points">
              <mxPoint x="201" y="144.5" />
            </Array>
          </mxGeometry>
        </mxCell>
        <mxCell id="MbVRnHVSaUQfbClzgoed-430" value="fet_jmp_e" style="edgeLabel;html=1;align=center;verticalAlign=middle;resizable=0;points=[];" vertex="1" connectable="0" parent="MbVRnHVSaUQfbClzgoed-427">
          <mxGeometry x="-0.7571" y="-3" relative="1" as="geometry">
            <mxPoint x="100" y="-3" as="offset" />
          </mxGeometry>
        </mxCell>
        <mxCell id="MbVRnHVSaUQfbClzgoed-458" style="edgeStyle=orthogonalEdgeStyle;rounded=0;orthogonalLoop=1;jettySize=auto;html=1;entryX=0.5;entryY=0;entryDx=0;entryDy=0;" edge="1" parent="1" target="MbVRnHVSaUQfbClzgoed-446">
          <mxGeometry relative="1" as="geometry">
            <mxPoint x="360" y="120" as="sourcePoint" />
            <Array as="points">
              <mxPoint x="380" y="120" />
              <mxPoint x="380" y="220" />
              <mxPoint x="230" y="220" />
            </Array>
          </mxGeometry>
        </mxCell>
        <mxCell id="MbVRnHVSaUQfbClzgoed-437" value="fet_pc_val" style="text;html=1;strokeColor=none;fillColor=none;align=center;verticalAlign=middle;whiteSpace=wrap;rounded=0;" vertex="1" parent="1">
          <mxGeometry x="310" y="110" width="40" height="20" as="geometry" />
        </mxCell>
        <mxCell id="MbVRnHVSaUQfbClzgoed-438" value="" style="endArrow=classic;html=1;entryX=0.5;entryY=0;entryDx=0;entryDy=0;" edge="1" parent="1" source="MbVRnHVSaUQfbClzgoed-439" target="MbVRnHVSaUQfbClzgoed-1">
          <mxGeometry width="50" height="50" relative="1" as="geometry">
            <mxPoint x="325" y="40" as="sourcePoint" />
            <mxPoint x="350" y="20" as="targetPoint" />
          </mxGeometry>
        </mxCell>
        <mxCell id="MbVRnHVSaUQfbClzgoed-439" value="clk/rst_n" style="text;html=1;align=center;verticalAlign=middle;resizable=0;points=[];autosize=1;strokeColor=none;" vertex="1" parent="1">
          <mxGeometry x="280" y="10" width="60" height="20" as="geometry" />
        </mxCell>
        <mxCell id="MbVRnHVSaUQfbClzgoed-440" value="&lt;font color=&quot;#ff3333&quot;&gt;fetch&lt;/font&gt;" style="text;html=1;strokeColor=none;fillColor=none;align=center;verticalAlign=middle;whiteSpace=wrap;rounded=0;" vertex="1" parent="1">
          <mxGeometry x="290" y="160" width="40" height="20" as="geometry" />
        </mxCell>
        <mxCell id="MbVRnHVSaUQfbClzgoed-442" value="" style="rounded=0;whiteSpace=wrap;html=1;" vertex="1" parent="1">
          <mxGeometry x="450" y="10" width="90" height="270" as="geometry" />
        </mxCell>
        <mxCell id="MbVRnHVSaUQfbClzgoed-443" value="&lt;span style=&quot;color: rgb(255 , 51 , 51)&quot;&gt;fetch_decode&lt;/span&gt;" style="text;html=1;strokeColor=none;fillColor=none;align=center;verticalAlign=middle;whiteSpace=wrap;rounded=0;" vertex="1" parent="1">
          <mxGeometry x="480" y="220" width="40" height="20" as="geometry" />
        </mxCell>
        <mxCell id="MbVRnHVSaUQfbClzgoed-444" value="fd_in_instr" style="text;html=1;strokeColor=none;fillColor=none;align=center;verticalAlign=middle;whiteSpace=wrap;rounded=0;" vertex="1" parent="1">
          <mxGeometry x="456" y="86" width="49" height="20" as="geometry" />
        </mxCell>
        <mxCell id="MbVRnHVSaUQfbClzgoed-446" value="" style="whiteSpace=wrap;html=1;aspect=fixed;" vertex="1" parent="1">
          <mxGeometry x="170" y="270" width="120" height="120" as="geometry" />
        </mxCell>
        <mxCell id="MbVRnHVSaUQfbClzgoed-448" value="&lt;span style=&quot;color: rgb(255 , 51 , 51)&quot;&gt;inst_rom&lt;/span&gt;" style="text;html=1;strokeColor=none;fillColor=none;align=center;verticalAlign=middle;whiteSpace=wrap;rounded=0;" vertex="1" parent="1">
          <mxGeometry x="210" y="360" width="40" height="20" as="geometry" />
        </mxCell>
        <mxCell id="MbVRnHVSaUQfbClzgoed-449" value="&lt;span style=&quot;background-color: rgb(255 , 255 , 255)&quot;&gt;cpu_instr&lt;/span&gt;" style="text;html=1;strokeColor=none;fillColor=none;align=center;verticalAlign=middle;whiteSpace=wrap;rounded=0;" vertex="1" parent="1">
          <mxGeometry x="330" y="310" width="40" height="20" as="geometry" />
        </mxCell>
        <mxCell id="MbVRnHVSaUQfbClzgoed-450" value="" style="endArrow=classic;html=1;entryX=0.5;entryY=0;entryDx=0;entryDy=0;" edge="1" parent="1" source="MbVRnHVSaUQfbClzgoed-451">
          <mxGeometry width="50" height="50" relative="1" as="geometry">
            <mxPoint x="505" y="-30" as="sourcePoint" />
            <mxPoint x="490" y="10" as="targetPoint" />
          </mxGeometry>
        </mxCell>
        <mxCell id="MbVRnHVSaUQfbClzgoed-451" value="clk/rst_n" style="text;html=1;align=center;verticalAlign=middle;resizable=0;points=[];autosize=1;strokeColor=none;" vertex="1" parent="1">
          <mxGeometry x="460" y="-60" width="60" height="20" as="geometry" />
        </mxCell>
        <mxCell id="MbVRnHVSaUQfbClzgoed-454" value="fd_out_instr" style="text;html=1;strokeColor=none;fillColor=none;align=center;verticalAlign=middle;whiteSpace=wrap;rounded=0;" vertex="1" parent="1">
          <mxGeometry x="489" y="40" width="31" height="23" as="geometry" />
        </mxCell>
        <mxCell id="MbVRnHVSaUQfbClzgoed-501" style="edgeStyle=orthogonalEdgeStyle;rounded=0;orthogonalLoop=1;jettySize=auto;html=1;exitX=1;exitY=0.5;exitDx=0;exitDy=0;entryX=-0.005;entryY=0.322;entryDx=0;entryDy=0;entryPerimeter=0;" edge="1" parent="1" source="MbVRnHVSaUQfbClzgoed-459" target="MbVRnHVSaUQfbClzgoed-442">
          <mxGeometry relative="1" as="geometry">
            <Array as="points">
              <mxPoint x="410" y="330" />
              <mxPoint x="410" y="97" />
            </Array>
          </mxGeometry>
        </mxCell>
        <mxCell id="MbVRnHVSaUQfbClzgoed-459" value="spo" style="text;html=1;strokeColor=none;fillColor=none;align=center;verticalAlign=middle;whiteSpace=wrap;rounded=0;" vertex="1" parent="1">
          <mxGeometry x="250" y="320" width="40" height="20" as="geometry" />
        </mxCell>
        <mxCell id="MbVRnHVSaUQfbClzgoed-460" value="a" style="text;html=1;strokeColor=none;fillColor=none;align=center;verticalAlign=middle;whiteSpace=wrap;rounded=0;" vertex="1" parent="1">
          <mxGeometry x="210" y="270" width="40" height="20" as="geometry" />
        </mxCell>
        <mxCell id="MbVRnHVSaUQfbClzgoed-461" value="&lt;span style=&quot;background-color: rgb(255 , 255 , 255)&quot;&gt;cpu_instr_addr&lt;/span&gt;" style="text;html=1;strokeColor=none;fillColor=none;align=center;verticalAlign=middle;whiteSpace=wrap;rounded=0;" vertex="1" parent="1">
          <mxGeometry x="280" y="210" width="40" height="20" as="geometry" />
        </mxCell>
        <mxCell id="MbVRnHVSaUQfbClzgoed-463" value="" style="whiteSpace=wrap;html=1;aspect=fixed;" vertex="1" parent="1">
          <mxGeometry x="660" y="10" width="212.5" height="212.5" as="geometry" />
        </mxCell>
        <mxCell id="MbVRnHVSaUQfbClzgoed-464" value="&lt;font color=&quot;#ff3333&quot;&gt;decode&lt;/font&gt;" style="text;html=1;strokeColor=none;fillColor=none;align=center;verticalAlign=middle;whiteSpace=wrap;rounded=0;" vertex="1" parent="1">
          <mxGeometry x="746.25" y="190" width="40" height="20" as="geometry" />
        </mxCell>
        <mxCell id="MbVRnHVSaUQfbClzgoed-465" value="dec_instr" style="text;html=1;strokeColor=none;fillColor=none;align=center;verticalAlign=middle;whiteSpace=wrap;rounded=0;" vertex="1" parent="1">
          <mxGeometry x="670" y="43" width="30" height="20" as="geometry" />
        </mxCell>
        <mxCell id="MbVRnHVSaUQfbClzgoed-466" value="dec_reg_wa" style="text;html=1;strokeColor=none;fillColor=none;align=center;verticalAlign=middle;whiteSpace=wrap;rounded=0;" vertex="1" parent="1">
          <mxGeometry x="820" y="170" width="40" height="20" as="geometry" />
        </mxCell>
        <mxCell id="MbVRnHVSaUQfbClzgoed-510" style="edgeStyle=orthogonalEdgeStyle;rounded=0;orthogonalLoop=1;jettySize=auto;html=1;" edge="1" parent="1">
          <mxGeometry relative="1" as="geometry">
            <mxPoint x="660" y="116" as="sourcePoint" />
            <mxPoint x="610" y="340" as="targetPoint" />
            <Array as="points">
              <mxPoint x="610" y="116" />
              <mxPoint x="610" y="340" />
            </Array>
          </mxGeometry>
        </mxCell>
        <mxCell id="MbVRnHVSaUQfbClzgoed-467" value="dec_reg_ra1" style="text;html=1;strokeColor=none;fillColor=none;align=center;verticalAlign=middle;whiteSpace=wrap;rounded=0;" vertex="1" parent="1">
          <mxGeometry x="675" y="106" width="40" height="20" as="geometry" />
        </mxCell>
        <mxCell id="MbVRnHVSaUQfbClzgoed-511" style="edgeStyle=orthogonalEdgeStyle;rounded=0;orthogonalLoop=1;jettySize=auto;html=1;entryX=0.5;entryY=0;entryDx=0;entryDy=0;exitX=-0.006;exitY=0.806;exitDx=0;exitDy=0;exitPerimeter=0;" edge="1" parent="1" source="MbVRnHVSaUQfbClzgoed-463" target="MbVRnHVSaUQfbClzgoed-481">
          <mxGeometry relative="1" as="geometry">
            <Array as="points">
              <mxPoint x="640" y="181" />
              <mxPoint x="640" y="260" />
              <mxPoint x="750" y="260" />
            </Array>
          </mxGeometry>
        </mxCell>
        <mxCell id="MbVRnHVSaUQfbClzgoed-468" value="dec_reg_ra2" style="text;html=1;strokeColor=none;fillColor=none;align=center;verticalAlign=middle;whiteSpace=wrap;rounded=0;" vertex="1" parent="1">
          <mxGeometry x="675" y="170" width="40" height="20" as="geometry" />
        </mxCell>
        <mxCell id="MbVRnHVSaUQfbClzgoed-555" style="edgeStyle=orthogonalEdgeStyle;rounded=0;orthogonalLoop=1;jettySize=auto;html=1;exitX=1.003;exitY=0.374;exitDx=0;exitDy=0;exitPerimeter=0;" edge="1" parent="1" source="MbVRnHVSaUQfbClzgoed-463">
          <mxGeometry relative="1" as="geometry">
            <mxPoint x="880" y="90" as="sourcePoint" />
            <mxPoint x="1009" y="90" as="targetPoint" />
            <Array as="points">
              <mxPoint x="1009" y="90" />
            </Array>
          </mxGeometry>
        </mxCell>
        <mxCell id="MbVRnHVSaUQfbClzgoed-470" value="dec_uins" style="text;html=1;strokeColor=none;fillColor=none;align=center;verticalAlign=middle;whiteSpace=wrap;rounded=0;" vertex="1" parent="1">
          <mxGeometry x="827" y="80" width="40" height="20" as="geometry" />
        </mxCell>
        <mxCell id="MbVRnHVSaUQfbClzgoed-556" style="edgeStyle=orthogonalEdgeStyle;rounded=0;orthogonalLoop=1;jettySize=auto;html=1;exitX=0.996;exitY=0.603;exitDx=0;exitDy=0;exitPerimeter=0;" edge="1" parent="1" source="MbVRnHVSaUQfbClzgoed-463">
          <mxGeometry relative="1" as="geometry">
            <mxPoint x="880" y="140" as="sourcePoint" />
            <mxPoint x="1007" y="138" as="targetPoint" />
            <Array as="points">
              <mxPoint x="1007" y="138" />
            </Array>
          </mxGeometry>
        </mxCell>
        <mxCell id="MbVRnHVSaUQfbClzgoed-472" value="dec_conflict" style="text;html=1;strokeColor=none;fillColor=none;align=center;verticalAlign=middle;whiteSpace=wrap;rounded=0;" vertex="1" parent="1">
          <mxGeometry x="820" y="130" width="40" height="20" as="geometry" />
        </mxCell>
        <mxCell id="MbVRnHVSaUQfbClzgoed-473" value="" style="rounded=0;whiteSpace=wrap;html=1;" vertex="1" parent="1">
          <mxGeometry x="1010" y="-10" width="260" height="340" as="geometry" />
        </mxCell>
        <mxCell id="MbVRnHVSaUQfbClzgoed-474" value="" style="whiteSpace=wrap;html=1;aspect=fixed;" vertex="1" parent="1">
          <mxGeometry x="1363" y="-18.75" width="354" height="354" as="geometry" />
        </mxCell>
        <mxCell id="MbVRnHVSaUQfbClzgoed-476" value="" style="whiteSpace=wrap;html=1;aspect=fixed;" vertex="1" parent="1">
          <mxGeometry x="590" y="340" width="210" height="210" as="geometry" />
        </mxCell>
        <mxCell id="MbVRnHVSaUQfbClzgoed-479" value="&lt;font color=&quot;#ff3333&quot;&gt;regfile&lt;/font&gt;" style="text;html=1;strokeColor=none;fillColor=none;align=center;verticalAlign=middle;whiteSpace=wrap;rounded=0;" vertex="1" parent="1">
          <mxGeometry x="675" y="510" width="40" height="20" as="geometry" />
        </mxCell>
        <mxCell id="MbVRnHVSaUQfbClzgoed-480" value="regfile_reg_ra1" style="text;html=1;strokeColor=none;fillColor=none;align=center;verticalAlign=middle;whiteSpace=wrap;rounded=0;" vertex="1" parent="1">
          <mxGeometry x="617" y="340" width="40" height="20" as="geometry" />
        </mxCell>
        <mxCell id="MbVRnHVSaUQfbClzgoed-481" value="regfile_reg_ra2" style="text;html=1;strokeColor=none;fillColor=none;align=center;verticalAlign=middle;whiteSpace=wrap;rounded=0;" vertex="1" parent="1">
          <mxGeometry x="730" y="340" width="40" height="20" as="geometry" />
        </mxCell>
        <mxCell id="MbVRnHVSaUQfbClzgoed-482" value="regfile_reg_we" style="text;html=1;strokeColor=none;fillColor=none;align=center;verticalAlign=middle;whiteSpace=wrap;rounded=0;" vertex="1" parent="1">
          <mxGeometry x="740" y="420" width="40" height="20" as="geometry" />
        </mxCell>
        <mxCell id="MbVRnHVSaUQfbClzgoed-483" value="regfile_reg_wd" style="text;html=1;strokeColor=none;fillColor=none;align=center;verticalAlign=middle;whiteSpace=wrap;rounded=0;" vertex="1" parent="1">
          <mxGeometry x="740" y="470" width="40" height="20" as="geometry" />
        </mxCell>
        <mxCell id="MbVRnHVSaUQfbClzgoed-558" style="edgeStyle=orthogonalEdgeStyle;rounded=0;orthogonalLoop=1;jettySize=auto;html=1;entryX=0;entryY=0.75;entryDx=0;entryDy=0;exitX=-0.004;exitY=0.433;exitDx=0;exitDy=0;exitPerimeter=0;" edge="1" parent="1" source="MbVRnHVSaUQfbClzgoed-476" target="MbVRnHVSaUQfbClzgoed-473">
          <mxGeometry relative="1" as="geometry">
            <mxPoint x="570" y="430" as="sourcePoint" />
            <Array as="points">
              <mxPoint x="530" y="431" />
              <mxPoint x="530" y="640" />
              <mxPoint x="950" y="640" />
              <mxPoint x="950" y="245" />
            </Array>
          </mxGeometry>
        </mxCell>
        <mxCell id="MbVRnHVSaUQfbClzgoed-484" value="regfile_reg_rd1" style="text;html=1;strokeColor=none;fillColor=none;align=center;verticalAlign=middle;whiteSpace=wrap;rounded=0;" vertex="1" parent="1">
          <mxGeometry x="617" y="420" width="40" height="20" as="geometry" />
        </mxCell>
        <mxCell id="MbVRnHVSaUQfbClzgoed-560" style="edgeStyle=orthogonalEdgeStyle;rounded=0;orthogonalLoop=1;jettySize=auto;html=1;entryX=0.005;entryY=0.627;entryDx=0;entryDy=0;entryPerimeter=0;" edge="1" parent="1" target="MbVRnHVSaUQfbClzgoed-473">
          <mxGeometry relative="1" as="geometry">
            <mxPoint x="586" y="482" as="sourcePoint" />
            <Array as="points">
              <mxPoint x="560" y="482" />
              <mxPoint x="560" y="590" />
              <mxPoint x="900" y="590" />
              <mxPoint x="900" y="203" />
            </Array>
          </mxGeometry>
        </mxCell>
        <mxCell id="MbVRnHVSaUQfbClzgoed-485" value="regfile_reg_rd2" style="text;html=1;strokeColor=none;fillColor=none;align=center;verticalAlign=middle;whiteSpace=wrap;rounded=0;" vertex="1" parent="1">
          <mxGeometry x="620" y="470" width="40" height="20" as="geometry" />
        </mxCell>
        <mxCell id="MbVRnHVSaUQfbClzgoed-486" value="regfile_reg_wa" style="text;html=1;strokeColor=none;fillColor=none;align=center;verticalAlign=middle;whiteSpace=wrap;rounded=0;" vertex="1" parent="1">
          <mxGeometry x="740" y="380" width="40" height="20" as="geometry" />
        </mxCell>
        <mxCell id="MbVRnHVSaUQfbClzgoed-498" value="" style="endArrow=classic;html=1;exitX=0.991;exitY=0.153;exitDx=0;exitDy=0;exitPerimeter=0;entryX=-0.02;entryY=0.198;entryDx=0;entryDy=0;entryPerimeter=0;" edge="1" parent="1" source="MbVRnHVSaUQfbClzgoed-442" target="MbVRnHVSaUQfbClzgoed-463">
          <mxGeometry width="50" height="50" relative="1" as="geometry">
            <mxPoint x="640" y="130" as="sourcePoint" />
            <mxPoint x="690" y="80" as="targetPoint" />
          </mxGeometry>
        </mxCell>
        <mxCell id="MbVRnHVSaUQfbClzgoed-557" style="edgeStyle=orthogonalEdgeStyle;rounded=0;orthogonalLoop=1;jettySize=auto;html=1;entryX=0.209;entryY=0;entryDx=0;entryDy=0;entryPerimeter=0;" edge="1" parent="1" source="MbVRnHVSaUQfbClzgoed-499" target="MbVRnHVSaUQfbClzgoed-473">
          <mxGeometry relative="1" as="geometry">
            <Array as="points">
              <mxPoint x="600" y="-30" />
              <mxPoint x="1064" y="-30" />
            </Array>
          </mxGeometry>
        </mxCell>
        <mxCell id="MbVRnHVSaUQfbClzgoed-499" value="&lt;span style=&quot;background-color: rgb(255 , 255 , 255)&quot;&gt;cpu_instr&lt;/span&gt;" style="text;html=1;strokeColor=none;fillColor=none;align=center;verticalAlign=middle;whiteSpace=wrap;rounded=0;" vertex="1" parent="1">
          <mxGeometry x="580" y="50" width="40" height="20" as="geometry" />
        </mxCell>
        <mxCell id="MbVRnHVSaUQfbClzgoed-517" value="&lt;font color=&quot;#ff3333&quot;&gt;decode_control&lt;/font&gt;" style="text;html=1;strokeColor=none;fillColor=none;align=center;verticalAlign=middle;whiteSpace=wrap;rounded=0;" vertex="1" parent="1">
          <mxGeometry x="1120" y="290" width="40" height="20" as="geometry" />
        </mxCell>
        <mxCell id="MbVRnHVSaUQfbClzgoed-518" value="&lt;font color=&quot;#ff3333&quot;&gt;control&lt;/font&gt;" style="text;html=1;strokeColor=none;fillColor=none;align=center;verticalAlign=middle;whiteSpace=wrap;rounded=0;" vertex="1" parent="1">
          <mxGeometry x="1600" y="400" width="40" height="20" as="geometry" />
        </mxCell>
        <mxCell id="MbVRnHVSaUQfbClzgoed-519" value="dc_in_instr" style="text;html=1;strokeColor=none;fillColor=none;align=center;verticalAlign=middle;whiteSpace=wrap;rounded=0;" vertex="1" parent="1">
          <mxGeometry x="1050" y="-10" width="40" height="20" as="geometry" />
        </mxCell>
        <mxCell id="MbVRnHVSaUQfbClzgoed-598" style="edgeStyle=orthogonalEdgeStyle;rounded=0;orthogonalLoop=1;jettySize=auto;html=1;entryX=0.75;entryY=1;entryDx=0;entryDy=0;" edge="1" parent="1" target="MbVRnHVSaUQfbClzgoed-551">
          <mxGeometry relative="1" as="geometry">
            <mxPoint x="1310" y="120" as="sourcePoint" />
            <Array as="points">
              <mxPoint x="1310" y="90" />
              <mxPoint x="1160" y="90" />
              <mxPoint x="1160" y="-80" />
              <mxPoint x="1470" y="-80" />
            </Array>
          </mxGeometry>
        </mxCell>
        <mxCell id="MbVRnHVSaUQfbClzgoed-520" value="dc_out_instr" style="text;html=1;strokeColor=none;fillColor=none;align=center;verticalAlign=middle;whiteSpace=wrap;rounded=0;" vertex="1" parent="1">
          <mxGeometry x="1210" y="110" width="40" height="20" as="geometry" />
        </mxCell>
        <mxCell id="MbVRnHVSaUQfbClzgoed-521" value="dc_in_uins" style="text;html=1;strokeColor=none;fillColor=none;align=center;verticalAlign=middle;whiteSpace=wrap;rounded=0;" vertex="1" parent="1">
          <mxGeometry x="1020" y="78" width="40" height="20" as="geometry" />
        </mxCell>
        <mxCell id="MbVRnHVSaUQfbClzgoed-522" value="dc_out_uins" style="text;html=1;strokeColor=none;fillColor=none;align=center;verticalAlign=middle;whiteSpace=wrap;rounded=0;" vertex="1" parent="1">
          <mxGeometry x="1210" y="170" width="40" height="20" as="geometry" />
        </mxCell>
        <mxCell id="MbVRnHVSaUQfbClzgoed-523" value="dc_in_conflict" style="text;html=1;strokeColor=none;fillColor=none;align=center;verticalAlign=middle;whiteSpace=wrap;rounded=0;" vertex="1" parent="1">
          <mxGeometry x="1027" y="128.25" width="40" height="20" as="geometry" />
        </mxCell>
        <mxCell id="MbVRnHVSaUQfbClzgoed-524" value="dc_out_conflict" style="text;html=1;strokeColor=none;fillColor=none;align=center;verticalAlign=middle;whiteSpace=wrap;rounded=0;" vertex="1" parent="1">
          <mxGeometry x="1210" y="239" width="40" height="20" as="geometry" />
        </mxCell>
        <mxCell id="MbVRnHVSaUQfbClzgoed-526" value="dc_in_reg_rd1" style="text;html=1;strokeColor=none;fillColor=none;align=center;verticalAlign=middle;whiteSpace=wrap;rounded=0;" vertex="1" parent="1">
          <mxGeometry x="1040" y="239" width="40" height="20" as="geometry" />
        </mxCell>
        <mxCell id="MbVRnHVSaUQfbClzgoed-527" value="dc_in_reg_rd2" style="text;html=1;strokeColor=none;fillColor=none;align=center;verticalAlign=middle;whiteSpace=wrap;rounded=0;" vertex="1" parent="1">
          <mxGeometry x="1040" y="190" width="40" height="20" as="geometry" />
        </mxCell>
        <mxCell id="MbVRnHVSaUQfbClzgoed-528" value="dc_out_reg_rd1" style="text;html=1;strokeColor=none;fillColor=none;align=center;verticalAlign=middle;whiteSpace=wrap;rounded=0;" vertex="1" parent="1">
          <mxGeometry x="1200" y="10" width="40" height="20" as="geometry" />
        </mxCell>
        <mxCell id="MbVRnHVSaUQfbClzgoed-529" value="dc_out_reg_rd2" style="text;html=1;strokeColor=none;fillColor=none;align=center;verticalAlign=middle;whiteSpace=wrap;rounded=0;" vertex="1" parent="1">
          <mxGeometry x="1200" y="58" width="40" height="20" as="geometry" />
        </mxCell>
        <mxCell id="MbVRnHVSaUQfbClzgoed-530" value="con_instr" style="text;html=1;strokeColor=none;fillColor=none;align=center;verticalAlign=middle;whiteSpace=wrap;rounded=0;" vertex="1" parent="1">
          <mxGeometry x="1370" y="110" width="40" height="20" as="geometry" />
        </mxCell>
        <mxCell id="MbVRnHVSaUQfbClzgoed-531" value="con_uins" style="text;html=1;strokeColor=none;fillColor=none;align=center;verticalAlign=middle;whiteSpace=wrap;rounded=0;" vertex="1" parent="1">
          <mxGeometry x="1370" y="168.25" width="40" height="20" as="geometry" />
        </mxCell>
        <mxCell id="MbVRnHVSaUQfbClzgoed-532" value="con_reg_rd1" style="text;html=1;strokeColor=none;fillColor=none;align=center;verticalAlign=middle;whiteSpace=wrap;rounded=0;" vertex="1" parent="1">
          <mxGeometry x="1380" y="10" width="40" height="20" as="geometry" />
        </mxCell>
        <mxCell id="MbVRnHVSaUQfbClzgoed-533" value="con_reg_rd2" style="text;html=1;strokeColor=none;fillColor=none;align=center;verticalAlign=middle;whiteSpace=wrap;rounded=0;" vertex="1" parent="1">
          <mxGeometry x="1380" y="63" width="40" height="20" as="geometry" />
        </mxCell>
        <mxCell id="MbVRnHVSaUQfbClzgoed-534" value="con_conflict" style="text;html=1;strokeColor=none;fillColor=none;align=center;verticalAlign=middle;whiteSpace=wrap;rounded=0;" vertex="1" parent="1">
          <mxGeometry x="1375" y="239" width="40" height="20" as="geometry" />
        </mxCell>
        <mxCell id="MbVRnHVSaUQfbClzgoed-535" value="con_mem_rd" style="text;html=1;strokeColor=none;fillColor=none;align=center;verticalAlign=middle;whiteSpace=wrap;rounded=0;" vertex="1" parent="1">
          <mxGeometry x="1520" y="310" width="40" height="20" as="geometry" />
        </mxCell>
        <mxCell id="MbVRnHVSaUQfbClzgoed-536" value="con_alu_res" style="text;html=1;strokeColor=none;fillColor=none;align=center;verticalAlign=middle;whiteSpace=wrap;rounded=0;" vertex="1" parent="1">
          <mxGeometry x="1460" y="140" width="40" height="20" as="geometry" />
        </mxCell>
        <mxCell id="MbVRnHVSaUQfbClzgoed-537" value="con_mem_addr" style="text;html=1;strokeColor=none;fillColor=none;align=center;verticalAlign=middle;whiteSpace=wrap;rounded=0;" vertex="1" parent="1">
          <mxGeometry x="1540" y="148.25" width="40" height="20" as="geometry" />
        </mxCell>
        <mxCell id="MbVRnHVSaUQfbClzgoed-538" value="con_mem_we" style="text;html=1;strokeColor=none;fillColor=none;align=center;verticalAlign=middle;whiteSpace=wrap;rounded=0;" vertex="1" parent="1">
          <mxGeometry x="1530" y="190" width="40" height="20" as="geometry" />
        </mxCell>
        <mxCell id="MbVRnHVSaUQfbClzgoed-539" value="con_mem_wd" style="text;html=1;strokeColor=none;fillColor=none;align=center;verticalAlign=middle;whiteSpace=wrap;rounded=0;" vertex="1" parent="1">
          <mxGeometry x="1550" y="230" width="40" height="20" as="geometry" />
        </mxCell>
        <mxCell id="MbVRnHVSaUQfbClzgoed-540" value="con_reg_we" style="text;html=1;strokeColor=none;fillColor=none;align=center;verticalAlign=middle;whiteSpace=wrap;rounded=0;" vertex="1" parent="1">
          <mxGeometry x="1540" y="270" width="40" height="20" as="geometry" />
        </mxCell>
        <mxCell id="MbVRnHVSaUQfbClzgoed-541" value="con_reg_wd" style="text;html=1;strokeColor=none;fillColor=none;align=center;verticalAlign=middle;whiteSpace=wrap;rounded=0;" vertex="1" parent="1">
          <mxGeometry x="1450" y="180" width="40" height="20" as="geometry" />
        </mxCell>
        <mxCell id="MbVRnHVSaUQfbClzgoed-542" value="con_reg_wa" style="text;html=1;strokeColor=none;fillColor=none;align=center;verticalAlign=middle;whiteSpace=wrap;rounded=0;" vertex="1" parent="1">
          <mxGeometry x="1640" y="140" width="40" height="20" as="geometry" />
        </mxCell>
        <mxCell id="MbVRnHVSaUQfbClzgoed-543" value="con_jmp_e" style="text;html=1;strokeColor=none;fillColor=none;align=center;verticalAlign=middle;whiteSpace=wrap;rounded=0;" vertex="1" parent="1">
          <mxGeometry x="1550" y="370" width="40" height="20" as="geometry" />
        </mxCell>
        <mxCell id="MbVRnHVSaUQfbClzgoed-590" style="edgeStyle=orthogonalEdgeStyle;rounded=0;orthogonalLoop=1;jettySize=auto;html=1;entryX=0.5;entryY=1;entryDx=0;entryDy=0;" edge="1" parent="1" target="MbVRnHVSaUQfbClzgoed-549">
          <mxGeometry relative="1" as="geometry">
            <mxPoint x="1590" y="-20" as="sourcePoint" />
          </mxGeometry>
        </mxCell>
        <mxCell id="MbVRnHVSaUQfbClzgoed-544" value="con_alu1" style="text;html=1;strokeColor=none;fillColor=none;align=center;verticalAlign=middle;whiteSpace=wrap;rounded=0;" vertex="1" parent="1">
          <mxGeometry x="1570" y="-10" width="40" height="20" as="geometry" />
        </mxCell>
        <mxCell id="MbVRnHVSaUQfbClzgoed-545" value="con_alu2" style="text;html=1;strokeColor=none;fillColor=none;align=center;verticalAlign=middle;whiteSpace=wrap;rounded=0;" vertex="1" parent="1">
          <mxGeometry x="1500" y="-10" width="40" height="20" as="geometry" />
        </mxCell>
        <mxCell id="MbVRnHVSaUQfbClzgoed-589" style="edgeStyle=orthogonalEdgeStyle;rounded=0;orthogonalLoop=1;jettySize=auto;html=1;entryX=0.25;entryY=1;entryDx=0;entryDy=0;" edge="1" parent="1">
          <mxGeometry relative="1" as="geometry">
            <mxPoint x="1659" y="-20" as="sourcePoint" />
            <mxPoint x="1659" y="-120" as="targetPoint" />
          </mxGeometry>
        </mxCell>
        <mxCell id="MbVRnHVSaUQfbClzgoed-546" value="con_imm32" style="text;html=1;strokeColor=none;fillColor=none;align=center;verticalAlign=middle;whiteSpace=wrap;rounded=0;" vertex="1" parent="1">
          <mxGeometry x="1630" y="-10" width="40" height="20" as="geometry" />
        </mxCell>
        <mxCell id="MbVRnHVSaUQfbClzgoed-547" value="alu_imm32" style="text;html=1;strokeColor=none;fillColor=none;align=center;verticalAlign=middle;whiteSpace=wrap;rounded=0;" vertex="1" parent="1">
          <mxGeometry x="1640" y="-140" width="40" height="20" as="geometry" />
        </mxCell>
        <mxCell id="MbVRnHVSaUQfbClzgoed-548" value="alu_pc" style="text;html=1;strokeColor=none;fillColor=none;align=center;verticalAlign=middle;whiteSpace=wrap;rounded=0;" vertex="1" parent="1">
          <mxGeometry x="1410" y="-220" width="40" height="20" as="geometry" />
        </mxCell>
        <mxCell id="MbVRnHVSaUQfbClzgoed-549" value="alu_in1" style="text;html=1;strokeColor=none;fillColor=none;align=center;verticalAlign=middle;whiteSpace=wrap;rounded=0;" vertex="1" parent="1">
          <mxGeometry x="1570" y="-140" width="40" height="20" as="geometry" />
        </mxCell>
        <mxCell id="MbVRnHVSaUQfbClzgoed-550" value="alu_in2" style="text;html=1;strokeColor=none;fillColor=none;align=center;verticalAlign=middle;whiteSpace=wrap;rounded=0;" vertex="1" parent="1">
          <mxGeometry x="1500" y="-140" width="40" height="20" as="geometry" />
        </mxCell>
        <mxCell id="MbVRnHVSaUQfbClzgoed-551" value="alu_uins" style="text;html=1;strokeColor=none;fillColor=none;align=center;verticalAlign=middle;whiteSpace=wrap;rounded=0;" vertex="1" parent="1">
          <mxGeometry x="1440" y="-140" width="40" height="20" as="geometry" />
        </mxCell>
        <mxCell id="MbVRnHVSaUQfbClzgoed-552" value="alu_res" style="text;html=1;strokeColor=none;fillColor=none;align=center;verticalAlign=middle;whiteSpace=wrap;rounded=0;" vertex="1" parent="1">
          <mxGeometry x="1540" y="-300" width="40" height="20" as="geometry" />
        </mxCell>
        <mxCell id="MbVRnHVSaUQfbClzgoed-553" value="cpu_reg_ra1" style="text;html=1;strokeColor=none;fillColor=none;align=center;verticalAlign=middle;whiteSpace=wrap;rounded=0;" vertex="1" parent="1">
          <mxGeometry x="577" y="200" width="40" height="20" as="geometry" />
        </mxCell>
        <mxCell id="MbVRnHVSaUQfbClzgoed-554" value="cpu_reg_ra2" style="text;html=1;strokeColor=none;fillColor=none;align=center;verticalAlign=middle;whiteSpace=wrap;rounded=0;" vertex="1" parent="1">
          <mxGeometry x="690" y="280" width="40" height="20" as="geometry" />
        </mxCell>
        <mxCell id="MbVRnHVSaUQfbClzgoed-561" value="con_mem_wd" style="text;html=1;strokeColor=none;fillColor=none;align=center;verticalAlign=middle;whiteSpace=wrap;rounded=0;" vertex="1" parent="1">
          <mxGeometry x="1540" y="110" width="40" height="20" as="geometry" />
        </mxCell>
        <mxCell id="MbVRnHVSaUQfbClzgoed-566" value="cpu_uins" style="text;html=1;strokeColor=none;fillColor=#FFFFFF;align=center;verticalAlign=middle;whiteSpace=wrap;rounded=0;" vertex="1" parent="1">
          <mxGeometry x="920" y="80" width="40" height="20" as="geometry" />
        </mxCell>
        <mxCell id="MbVRnHVSaUQfbClzgoed-567" value="cpu_conflict" style="text;html=1;strokeColor=none;fillColor=none;align=center;verticalAlign=middle;whiteSpace=wrap;rounded=0;" vertex="1" parent="1">
          <mxGeometry x="920" y="135" width="40" height="20" as="geometry" />
        </mxCell>
        <mxCell id="MbVRnHVSaUQfbClzgoed-568" value="cpu_reg_rd2" style="text;html=1;strokeColor=none;fillColor=none;align=center;verticalAlign=middle;whiteSpace=wrap;rounded=0;" vertex="1" parent="1">
          <mxGeometry x="930" y="180" width="40" height="20" as="geometry" />
        </mxCell>
        <mxCell id="MbVRnHVSaUQfbClzgoed-569" value="cpu_reg_rd1" style="text;html=1;strokeColor=none;fillColor=none;align=center;verticalAlign=middle;whiteSpace=wrap;rounded=0;" vertex="1" parent="1">
          <mxGeometry x="940" y="299" width="40" height="20" as="geometry" />
        </mxCell>
        <mxCell id="MbVRnHVSaUQfbClzgoed-570" value="" style="whiteSpace=wrap;html=1;aspect=fixed;fillColor=#FFFFFF;" vertex="1" parent="1">
          <mxGeometry x="1040" y="550" width="290" height="290" as="geometry" />
        </mxCell>
        <mxCell id="MbVRnHVSaUQfbClzgoed-572" value="a" style="text;html=1;strokeColor=none;fillColor=none;align=center;verticalAlign=middle;whiteSpace=wrap;rounded=0;" vertex="1" parent="1">
          <mxGeometry x="1120" y="585" width="40" height="20" as="geometry" />
        </mxCell>
        <mxCell id="MbVRnHVSaUQfbClzgoed-573" value="d" style="text;html=1;strokeColor=none;fillColor=none;align=center;verticalAlign=middle;whiteSpace=wrap;rounded=0;" vertex="1" parent="1">
          <mxGeometry x="1123" y="665" width="40" height="20" as="geometry" />
        </mxCell>
        <mxCell id="MbVRnHVSaUQfbClzgoed-574" value="we" style="text;html=1;strokeColor=none;fillColor=none;align=center;verticalAlign=middle;whiteSpace=wrap;rounded=0;" vertex="1" parent="1">
          <mxGeometry x="1233" y="605" width="40" height="20" as="geometry" />
        </mxCell>
        <mxCell id="MbVRnHVSaUQfbClzgoed-575" value="spo" style="text;html=1;strokeColor=none;fillColor=none;align=center;verticalAlign=middle;whiteSpace=wrap;rounded=0;" vertex="1" parent="1">
          <mxGeometry x="1233" y="705" width="40" height="20" as="geometry" />
        </mxCell>
        <mxCell id="MbVRnHVSaUQfbClzgoed-576" style="edgeStyle=orthogonalEdgeStyle;rounded=0;orthogonalLoop=1;jettySize=auto;html=1;exitX=0.5;exitY=1;exitDx=0;exitDy=0;" edge="1" parent="1" source="MbVRnHVSaUQfbClzgoed-572" target="MbVRnHVSaUQfbClzgoed-572">
          <mxGeometry relative="1" as="geometry" />
        </mxCell>
        <mxCell id="MbVRnHVSaUQfbClzgoed-578" value="" style="endArrow=classic;html=1;fontFamily=Helvetica;fontSize=11;fontColor=#000000;align=center;strokeColor=#000000;" edge="1" parent="1">
          <mxGeometry width="50" height="50" relative="1" as="geometry">
            <mxPoint x="1269.9999999999998" y="179.99999999999994" as="sourcePoint" />
            <mxPoint x="1361.4880000000003" y="180.82199999999983" as="targetPoint" />
          </mxGeometry>
        </mxCell>
        <mxCell id="MbVRnHVSaUQfbClzgoed-579" value="" style="endArrow=classic;html=1;exitX=0.997;exitY=0.384;exitDx=0;exitDy=0;exitPerimeter=0;entryX=0.002;entryY=0.083;entryDx=0;entryDy=0;entryPerimeter=0;" edge="1" parent="1">
          <mxGeometry width="50" height="50" relative="1" as="geometry">
            <mxPoint x="1269.9999999999998" y="248.58999999999995" as="sourcePoint" />
            <mxPoint x="1361.4880000000003" y="249.41199999999984" as="targetPoint" />
          </mxGeometry>
        </mxCell>
        <mxCell id="MbVRnHVSaUQfbClzgoed-584" value="" style="endArrow=classic;html=1;exitX=0.997;exitY=0.384;exitDx=0;exitDy=0;exitPerimeter=0;entryX=0.002;entryY=0.083;entryDx=0;entryDy=0;entryPerimeter=0;" edge="1" parent="1">
          <mxGeometry width="50" height="50" relative="1" as="geometry">
            <mxPoint x="1271.5099999999998" y="119.57999999999977" as="sourcePoint" />
            <mxPoint x="1362.9980000000005" y="120.40200000000011" as="targetPoint" />
          </mxGeometry>
        </mxCell>
        <mxCell id="MbVRnHVSaUQfbClzgoed-585" value="" style="endArrow=classic;html=1;exitX=0.997;exitY=0.384;exitDx=0;exitDy=0;exitPerimeter=0;entryX=0.002;entryY=0.083;entryDx=0;entryDy=0;entryPerimeter=0;" edge="1" parent="1">
          <mxGeometry width="50" height="50" relative="1" as="geometry">
            <mxPoint x="1271.5099999999998" y="69.99999999999977" as="sourcePoint" />
            <mxPoint x="1362.9980000000005" y="70.82200000000012" as="targetPoint" />
          </mxGeometry>
        </mxCell>
        <mxCell id="MbVRnHVSaUQfbClzgoed-586" value="" style="endArrow=classic;html=1;exitX=0.997;exitY=0.384;exitDx=0;exitDy=0;exitPerimeter=0;entryX=0.002;entryY=0.083;entryDx=0;entryDy=0;entryPerimeter=0;" edge="1" parent="1">
          <mxGeometry width="50" height="50" relative="1" as="geometry">
            <mxPoint x="1269.9999999999998" y="19.579999999999785" as="sourcePoint" />
            <mxPoint x="1361.4880000000005" y="20.40200000000013" as="targetPoint" />
          </mxGeometry>
        </mxCell>
        <mxCell id="MbVRnHVSaUQfbClzgoed-591" style="edgeStyle=orthogonalEdgeStyle;rounded=0;orthogonalLoop=1;jettySize=auto;html=1;entryX=0.5;entryY=1;entryDx=0;entryDy=0;" edge="1" parent="1">
          <mxGeometry relative="1" as="geometry">
            <mxPoint x="1520" y="-20" as="sourcePoint" />
            <mxPoint x="1520" y="-120" as="targetPoint" />
          </mxGeometry>
        </mxCell>
      </root>
    </mxGraphModel>
  </diagram>
</mxfile>
